<svg version="1.1" id="Layer_1" xmlns="http://www.w3.org/2000/svg" xmlns:xlink="http://www.w3.org/1999/xlink" width="20" height="20" x="0px" y="0px" viewBox="0 0 512 512" style="enable-background:new 0 0 512 512;" xml:space="preserve"><g><g><path d="M489.338,94.229C452.804,34.557,401.883,21.708,365.6,21.437c-30.941-0.206-61.602,8.653-88.573,25.664L256,60.273 l-20.988-13.147C208.003,30.09,177.373,21.197,146.4,21.437C110.116,21.709,59.196,34.558,22.662,94.23 c-29.455,48.109-30.231,105.169-2.131,156.551c21.733,39.74,55.447,71.461,88.05,102.138c5.743,5.403,11.166,10.506,16.563,15.688 c20.223,19.418,40.701,38.142,60.506,56.249c19.669,17.982,40.008,36.578,59.964,55.74l10.386,9.972l10.388-9.972 c19.956-19.161,40.295-37.756,59.964-55.74c19.804-18.107,40.283-36.831,60.506-56.249c5.396-5.181,10.82-10.284,16.563-15.688 c32.603-30.676,66.316-62.398,88.05-102.138C519.569,199.399,518.792,142.338,489.338,94.229z M465.152,236.389 c-19.445,35.555-51.393,65.614-82.288,94.685c-5.545,5.217-11.278,10.611-16.784,15.898c-19.958,19.164-40.3,37.762-59.971,55.748 c-16.418,15.011-33.298,30.444-50.112,46.346c-16.814-15.903-33.693-31.335-50.111-46.346 c-19.671-17.985-40.013-36.584-59.971-55.748c-5.506-5.287-11.239-10.681-16.784-15.898c-30.896-29.07-62.843-59.13-82.288-94.685 c-22.803-41.697-22.294-87.805,1.397-126.501c23.559-38.48,56.66-58.149,98.382-58.461c0.319-0.002,0.633-0.003,0.952-0.003 c24.887,0,49.57,7.277,71.475,21.095l36.95,23.146l36.99-23.171c22.145-13.969,47.195-21.268,72.387-21.066 c41.722,0.312,74.823,19.981,98.382,58.461C487.447,148.584,487.956,194.691,465.152,236.389z" ></path></g></g></svg>